<svg width="234" height="35" viewBox="0 0 234 35" fill="none" xmlns="http://www.w3.org/2000/svg">
<path d="M33.376 34H28.96L28.336 24.64L26.896 10.72H26.56L18.64 30.592H14.704L7.36 10.72H6.928L5.488 24.208L4.72 34H0.544L3.76 3.184H9.424L10.864 7.792L16.768 24.16H17.152L23.392 7.648L24.832 3.184H30.448L33.376 34ZM46.9229 11.44C49.1309 11.44 50.8749 11.968 52.1549 13.024C53.4349 14.08 54.0749 15.552 54.0749 17.44C54.0749 18.016 53.9789 19.936 53.7869 23.2C53.5949 26.4 53.4989 28.272 53.4989 28.816C53.4989 29.424 53.5949 29.856 53.7869 30.112C54.0109 30.336 54.3789 30.448 54.8909 30.448C55.2109 30.448 55.6909 30.384 56.3309 30.256L56.7629 30.592L56.2829 33.28C55.3549 33.856 54.3469 34.208 53.2589 34.336C52.2669 34.24 51.4669 33.888 50.8589 33.28C50.2509 32.64 49.8829 31.808 49.7549 30.784H49.4189C47.7869 32.512 46.1229 33.712 44.4269 34.384C42.2189 34.352 40.4749 33.776 39.1949 32.656C37.9469 31.536 37.3229 30.016 37.3229 28.096C37.3229 25.248 38.8749 23.472 41.9789 22.768L49.5629 21.088L49.6109 18.496C49.6109 17.312 49.3069 16.416 48.6989 15.808C48.1229 15.2 47.2749 14.896 46.1549 14.896C45.0669 14.896 43.9789 15.152 42.8909 15.664C41.8029 16.144 40.6029 16.912 39.2909 17.968L38.9069 17.728L38.2829 14.32C41.0989 12.4 43.9789 11.44 46.9229 11.44ZM43.3229 25.408C42.7469 25.536 42.3309 25.76 42.0749 26.08C41.8189 26.368 41.6909 26.832 41.6909 27.472C41.6909 28.432 41.9469 29.184 42.4589 29.728C43.0029 30.272 43.7229 30.544 44.6189 30.544C46.1229 30.544 47.7229 29.568 49.4189 27.616L49.5629 23.92L43.3229 25.408ZM66.3018 24.256L66.6378 34H61.7418L62.0778 24.688L61.7898 0.688L66.6858 0.303999L66.3018 24.256ZM71.7738 21.952C74.0458 25.184 76.9098 28.912 80.3658 33.136V33.712C79.5338 33.936 78.6378 34.096 77.6778 34.192C76.7178 34.32 76.1258 34.4 75.9018 34.432L75.3738 34.24C72.0778 30.08 69.2938 26.128 67.0218 22.384V22.048L73.3098 13.984L74.5098 11.872H79.8378L71.7738 21.952ZM99.7124 23.152L86.2244 23.2C86.2564 25.632 86.8484 27.488 88.0004 28.768C89.1524 30.016 90.7844 30.64 92.8964 30.64C95.1044 30.64 97.2644 29.984 99.3764 28.672L99.8564 28.96L99.1364 32.896C96.8004 33.92 94.5284 34.432 92.3204 34.432C89.0244 34.432 86.4324 33.424 84.5444 31.408C82.6884 29.36 81.7604 26.576 81.7604 23.056C81.7604 19.504 82.6884 16.688 84.5444 14.608C86.4004 12.528 88.9124 11.488 92.0804 11.488C94.7684 11.488 96.8324 12.224 98.2724 13.696C99.7444 15.168 100.48 17.248 100.48 19.936C100.48 20.672 100.4 21.552 100.24 22.576L99.7124 23.152ZM96.0644 19.36C96.0644 17.856 95.7124 16.72 95.0084 15.952C94.3364 15.184 93.3444 14.8 92.0324 14.8C90.5604 14.8 89.3444 15.28 88.3844 16.24C87.4244 17.168 86.7844 18.496 86.4644 20.224L95.9684 20.032L96.0644 19.36ZM113.728 24.736L113.584 12.208L118.384 11.776L118.192 24.304L118.336 34H113.536L113.728 24.736ZM116.032 1.552C116.832 1.552 117.456 1.792 117.904 2.272C118.352 2.72 118.576 3.36 118.576 4.192C118.576 5.056 118.336 5.744 117.856 6.256C117.376 6.768 116.72 7.024 115.888 7.024C115.056 7.024 114.4 6.784 113.92 6.304C113.472 5.824 113.248 5.168 113.248 4.336C113.248 3.504 113.488 2.832 113.968 2.32C114.48 1.808 115.168 1.552 116.032 1.552ZM133.216 30.304C134.272 30.304 135.392 30.016 136.576 29.44L137.056 29.776L136.576 32.848C134.816 33.68 133.184 34.16 131.68 34.288C129.696 33.968 128.256 33.312 127.36 32.32C126.464 31.296 126.016 29.824 126.016 27.904L126.208 24.448L126.16 15.088H123.136L122.944 14.8L123.184 11.968H126.112V8.464L130.432 6.832L130.864 7.216L130.768 11.968H136.912L137.104 12.304L136.864 15.088H130.672L130.432 27.136C130.4 28.32 130.592 29.152 131.008 29.632C131.456 30.08 132.192 30.304 133.216 30.304ZM158.527 2.848C160.959 2.848 163.391 3.36 165.823 4.384L165.007 8.896L164.239 9.184C163.215 8.448 162.159 7.872 161.071 7.456C159.983 7.04 158.943 6.832 157.951 6.832C156.383 6.832 155.135 7.264 154.207 8.128C153.279 8.992 152.815 10 152.815 11.152C152.815 12.272 153.279 13.2 154.207 13.936C155.135 14.64 156.591 15.456 158.575 16.384C160.303 17.216 161.695 17.968 162.751 18.64C163.839 19.312 164.767 20.208 165.535 21.328C166.303 22.416 166.687 23.728 166.687 25.264C166.687 26.928 166.223 28.464 165.295 29.872C164.399 31.248 163.119 32.352 161.455 33.184C159.823 33.984 157.951 34.384 155.839 34.384C154.431 34.384 152.975 34.208 151.471 33.856C149.967 33.504 148.543 32.992 147.199 32.32L147.823 27.424L148.447 27.136C149.631 28.256 150.927 29.104 152.335 29.68C153.775 30.224 155.103 30.496 156.319 30.496C157.983 30.496 159.311 30.064 160.303 29.2C161.295 28.304 161.791 27.248 161.791 26.032C161.791 24.816 161.311 23.84 160.351 23.104C159.391 22.336 157.919 21.488 155.935 20.56C154.239 19.76 152.863 19.04 151.807 18.4C150.751 17.728 149.839 16.848 149.071 15.76C148.335 14.672 147.967 13.36 147.967 11.824C147.967 10.16 148.415 8.64 149.311 7.264C150.207 5.888 151.455 4.816 153.055 4.048C154.655 3.248 156.479 2.848 158.527 2.848ZM176.411 24.256L176.747 34H171.851L172.187 24.688L171.899 0.688L176.795 0.303999L176.411 24.256ZM184.135 24.736L183.991 12.208L188.791 11.776L188.599 24.304L188.743 34H183.943L184.135 24.736ZM186.439 1.552C187.239 1.552 187.863 1.792 188.311 2.272C188.759 2.72 188.983 3.36 188.983 4.192C188.983 5.056 188.743 5.744 188.263 6.256C187.783 6.768 187.127 7.024 186.295 7.024C185.463 7.024 184.807 6.784 184.327 6.304C183.879 5.824 183.655 5.168 183.655 4.336C183.655 3.504 183.895 2.832 184.375 2.32C184.887 1.808 185.575 1.552 186.439 1.552ZM204.295 11.44C205.319 11.44 206.359 11.552 207.415 11.776C208.471 12 209.399 12.304 210.199 12.688L209.383 16.768L208.903 16.96C207.207 15.968 205.639 15.472 204.199 15.472C202.503 15.472 201.175 16.112 200.215 17.392C199.255 18.672 198.775 20.464 198.775 22.768C198.775 25.232 199.271 27.152 200.263 28.528C201.255 29.872 202.663 30.544 204.487 30.544C206.087 30.544 207.799 30.064 209.623 29.104L210.055 29.392L209.575 33.328C207.623 34.064 205.671 34.432 203.719 34.432C200.711 34.432 198.359 33.44 196.663 31.456C194.999 29.44 194.167 26.672 194.167 23.152C194.167 19.504 195.063 16.64 196.855 14.56C198.647 12.48 201.127 11.44 204.295 11.44ZM218.974 24.256L219.31 34H214.414L214.75 24.688L214.462 0.688L219.358 0.303999L218.974 24.256ZM224.446 21.952C226.718 25.184 229.582 28.912 233.038 33.136V33.712C232.206 33.936 231.31 34.096 230.35 34.192C229.39 34.32 228.798 34.4 228.574 34.432L228.046 34.24C224.75 30.08 221.966 26.128 219.694 22.384V22.048L225.982 13.984L227.182 11.872H232.51L224.446 21.952Z" fill="black"/>
</svg>
